<svg xmlns="http://www.w3.org/2000/svg" width="80" height="32" viewBox="0 0 80 32">
  <path fill="#FFFFFF" fill-rule="evenodd" d="M80 0v31.522h-5.973V29.09c-.96 1.389-3.27 2.91-6.279 2.91-5.8 0-10.248-5.168-10.248-11.332 0-6.165 4.447-11.33 10.248-11.33 3.009 0 5.32 1.519 6.279 2.908V0H80zM31.364 0v31.32H25.1V10.698l-9.42 12.898-9.416-12.898v20.62H0V0c3.584 0 6.951 1.71 9.066 4.597l6.615 9.034 6.615-9.034C24.344 1.8 27.57.108 31.028.005L31.364 0zM43.05 11.042V31.32h-5.872V11.042h5.872zM54.09 0v31.32h-5.908V0h5.909zm14.923 14.764c-3.27 0-5.494 2.518-5.494 5.904s2.223 5.904 5.494 5.904c3.27 0 5.493-2.518 5.493-5.904s-2.223-5.904-5.493-5.904zM40.09 0c2.102 0 3.773 1.682 3.773 3.753 0 2.07-1.671 3.752-3.773 3.752-2.013 0-3.727-1.682-3.727-3.752S38.078 0 40.09 0z"></path>
</svg>